<svg width="500" height="300" viewBox="0 0 500 300" fill="none" xmlns="http://www.w3.org/2000/svg">
<rect width="500" height="300" fill="white"/>
<path d="M272.159 25.599C272.651 26.4189 273.963 27.2389 274.947 27.2389C275.767 27.2389 279.046 28.3868 282.162 29.8626C285.114 31.3385 288.558 32.1584 289.706 31.6665C290.853 31.3385 288.394 29.3707 284.13 27.5668C275.931 23.7952 270.519 22.8112 272.159 25.599Z" fill="black"/>
<path d="M398.428 28.7148C397.444 29.5347 391.213 33.1424 384.49 36.7501C363.335 47.7371 349.233 55.4445 347.757 56.9204C346.773 57.7403 347.757 60.2001 350.38 62.8239C352.676 65.4476 357.104 71.0232 360.22 75.4508L365.959 83.4861L358.088 91.3574C353.66 95.7851 349.069 99.3927 347.921 99.3927C346.937 99.2287 343.493 95.949 340.705 92.0134C327.914 74.6308 301.349 58.7242 273.799 51.8368C250.349 45.9333 239.198 44.7854 219.356 45.7693C196.234 47.0812 189.51 48.885 171.636 58.2322C156.057 66.4315 145.89 75.7787 136.051 91.1934C122.276 112.676 116.372 133.994 114.405 169.907C113.585 185.649 112.929 189.093 110.305 190.897C108.009 192.537 107.353 195.161 107.353 202.704C107.353 207.951 108.009 214.183 108.993 216.479C110.469 220.414 110.141 220.742 106.369 220.742C100.63 220.742 93.5783 228.122 94.8902 232.713C95.3822 234.681 95.8741 237.469 95.8741 238.945C95.8741 242.717 102.27 245.012 116.7 246.324C123.752 246.98 130.639 247.636 131.951 247.964C133.263 248.128 134.903 248.456 135.395 248.456C136.051 248.62 136.871 250.26 137.527 252.392C140.478 264.035 159.337 275.022 178.523 276.006C189.346 276.662 190.822 276.334 199.185 271.25C205.745 267.314 209.68 263.379 213.616 256.819C218.208 249.112 219.684 247.8 224.275 247.636C227.063 247.472 249.857 246.816 274.783 246.16L319.879 244.848L325.619 250.588C328.898 253.704 335.13 258.459 339.557 261.083C346.773 265.347 349.069 265.839 361.531 265.839C377.93 265.839 380.882 264.199 391.049 251.244L397.608 242.553L414.827 241.405C424.174 240.749 438.933 240.749 447.46 241.405C460.579 242.389 463.695 242.061 467.302 239.765C472.058 236.649 472.714 230.582 468.614 226.318C466.647 224.35 465.663 220.414 465.335 212.707C464.679 197.292 457.627 183.518 446.148 176.138C436.637 169.743 424.174 164.167 415.647 162.527C399.576 159.412 381.538 145.965 368.091 127.434C361.204 117.923 356.612 114.807 356.612 119.727C356.612 120.875 358.416 123.663 360.548 125.958C362.515 128.254 365.959 132.682 367.763 135.798C371.699 142.029 385.637 155.804 389.409 157.116C397.772 160.068 370.059 165.807 356.12 164.003C351.364 163.347 343.657 161.215 338.737 159.084C327.75 154.164 325.291 154.164 319.387 159.084C312.008 165.151 307.744 166.955 298.725 166.955C291.673 167.119 287.574 165.807 274.947 159.248C254.285 148.589 248.545 148.097 230.015 155.804C208.861 164.495 201.645 164.003 175.571 151.868C161.305 145.145 155.401 145.637 136.379 154.984C128.671 158.592 121.948 161.707 121.62 161.707C119.98 161.707 127.031 123.991 130.147 115.791C140.97 87.2578 166.716 64.9557 197.054 57.9043C217.716 52.9847 224.931 52.3287 244.281 53.8046C270.355 55.6085 294.953 62.8238 311.68 73.4829C319.551 78.4025 340.213 98.2448 340.213 100.705C340.213 101.361 333.326 104.804 325.127 108.084C316.763 111.528 308.892 114.643 307.908 115.135C306.596 115.791 305.776 114.971 305.776 113.496C305.776 110.052 304.956 110.216 296.429 114.315C288.066 118.415 280.194 117.595 281.998 112.84C282.49 111.364 283.474 108.248 283.966 105.788C284.622 102.017 284.294 101.689 278.883 101.689C271.995 101.689 271.503 102.836 276.751 106.444C279.702 108.412 280.03 109.396 278.391 111.036C276.751 112.676 275.767 112.676 274.291 111.2C273.143 110.052 271.339 109.232 270.191 109.232C266.42 109.232 267.895 112.348 273.143 115.135C276.915 116.939 277.735 118.251 276.423 119.563C275.439 120.547 274.619 121.859 274.619 122.515C274.619 124.647 281.67 125.467 284.622 123.499C286.918 122.187 288.066 122.023 289.542 123.499C290.69 124.647 292.985 124.811 296.429 123.827C303.808 121.695 305.284 122.023 306.432 125.139C308.072 129.074 300.693 134.814 298.725 131.206C297.249 128.582 293.313 128.09 291.837 130.55C289.542 134.322 294.789 137.437 301.185 136.454C304.956 135.798 307.416 136.126 307.416 137.11C307.416 137.929 309.22 138.749 311.516 138.749C313.812 138.749 315.615 137.929 315.615 137.11C315.615 136.126 314.959 135.47 313.976 135.47C309.384 135.47 313.484 131.534 322.667 127.434C339.557 119.563 339.393 119.563 345.133 127.598C348.085 131.534 351.364 136.782 352.676 139.241L355.136 143.833L349.069 143.341C343.821 142.849 343.001 142.357 342.509 138.093C341.689 130.55 340.541 128.91 336.442 128.91C331.03 128.91 328.406 132.518 329.718 137.765L330.702 142.029H312.992C290.526 142.029 288.394 141.373 287.082 135.142C286.426 131.698 285.278 130.55 283.146 130.878C279.047 131.534 271.339 126.286 271.339 122.679C271.339 121.203 269.207 117.595 266.584 114.643C262.32 109.724 261.828 107.92 260.844 91.1934C260.188 81.3543 260.188 72.3351 260.68 71.5151C262.156 69.2193 269.535 69.5473 278.063 72.0071C291.345 76.1067 304.3 83.4861 314.795 93.1613C325.783 103.328 327.094 103.984 327.094 100.377C327.094 93.3252 294.789 71.8431 277.243 67.2515C256.58 61.6759 254.285 64.4637 256.58 92.1774C259.204 124.319 263.14 140.389 268.715 142.521C272.487 143.997 287.902 145.145 316.435 146.129C330.866 146.621 346.117 147.441 350.38 147.933C356.448 148.753 358.416 148.425 359.236 146.457C360.384 143.341 354.808 132.354 348.249 124.811C345.297 121.531 343.329 118.743 343.657 118.579C347.593 115.627 359.236 113.004 365.139 113.66C369.731 114.151 374.65 113.496 378.586 111.856C386.785 108.412 388.425 109.396 404.332 127.598C410.891 135.142 417.451 141.865 419.091 142.685C421.386 143.833 428.274 141.373 446.312 133.174C475.994 119.727 476.814 119.071 471.238 113.004C468.942 110.38 463.695 103.656 459.759 97.9169C455.823 92.0134 451.232 85.7819 449.756 83.9781C443.524 76.2707 424.994 51.8368 416.303 39.8658C407.284 27.4029 402.692 24.6151 398.428 28.7148ZM401.544 42.3256C402.036 48.0651 403.02 59.5442 403.512 67.7435C404.332 79.3865 405.152 82.9941 406.956 82.9941C408.595 82.9941 409.087 81.5183 408.431 77.5826C407.94 74.7948 407.12 66.4316 406.628 59.2162C406.136 52.0008 405.316 42.9815 404.66 39.0459C404.168 35.1102 404.496 32.1585 405.316 32.1585C406.3 32.1585 409.743 36.5861 413.023 41.9976C416.303 47.4092 423.026 56.4284 427.782 62.0039C432.537 67.7434 439.917 77.4186 444.344 83.8141C448.608 90.0455 454.676 98.4088 457.791 102.344C461.071 106.28 463.203 109.888 462.711 110.216C462.219 110.708 453.856 106.936 444.016 101.525C424.174 90.8655 414.499 86.4379 410.399 86.4379C404.988 86.2739 407.448 89.0616 415.319 92.0134C419.583 93.6532 431.39 99.3927 441.721 104.804C451.888 110.216 462.055 114.643 464.187 114.479C468.778 114.479 469.598 118.743 465.335 120.219C463.695 120.711 453.528 125.139 442.869 130.058C432.209 134.814 422.37 138.749 421.222 138.749C420.075 138.749 415.647 134.486 411.219 129.402C406.956 124.155 399.74 116.611 395.477 112.348C388.589 105.788 387.933 104.476 390.229 102.672C393.509 99.8847 393.345 97.4249 389.409 88.5697C386.457 82.1742 385.637 81.5183 382.85 82.9941C381.21 83.9781 379.242 85.4539 378.75 86.2739C376.782 89.3896 374.814 87.7497 364.155 73.9749C353.66 60.3641 351.692 57.0844 354.808 59.2162C356.776 60.2001 394.001 69.8752 396.624 69.8752C397.444 69.8752 397.116 68.7273 395.805 67.4155C394.329 65.9396 385.965 63.3158 376.946 61.512C368.091 59.7081 359.564 57.9043 358.252 57.4123C356.776 56.9204 363.335 52.4927 375.142 46.2613C385.801 40.5218 395.313 35.1102 396.297 34.1263C399.74 30.6826 400.56 31.9945 401.544 42.3256ZM367.107 92.8333C366.451 95.949 366.779 97.7529 367.927 97.7529C368.911 97.7529 369.731 98.7368 369.731 100.049C369.731 101.361 370.879 102.672 372.191 103.328C373.502 103.82 374.65 105.46 374.65 106.936C374.65 109.232 373.502 109.56 367.763 108.74C362.351 108.084 357.432 109.068 343.821 114.315C334.31 117.923 323.815 122.351 320.371 123.991C312.172 128.254 312.008 128.254 312.664 122.187C313.156 117.431 314.14 116.775 329.554 110.708C338.573 107.1 348.741 103.328 352.184 102.344C356.448 101.033 359.072 99.0648 360.22 96.277C363.499 87.4218 368.583 84.798 367.107 92.8333ZM384.49 96.9329C384.49 98.2448 383.014 100.049 381.374 101.033C376.946 103.328 374.814 99.5567 378.75 96.605C382.686 93.8172 384.49 93.8172 384.49 96.9329ZM269.043 129.894C268.223 132.026 267.404 132.19 266.092 130.878C265.108 129.894 264.78 127.926 265.436 126.286C266.256 124.155 267.076 123.991 268.387 125.303C269.371 126.286 269.699 128.254 269.043 129.894ZM280.03 134.65C285.934 139.897 285.606 141.045 278.391 139.569C270.355 138.093 269.863 137.765 270.847 133.83C271.995 129.566 274.455 129.73 280.03 134.65ZM165.896 152.524C169.34 153.672 177.375 157.28 183.607 160.232C199.677 167.939 212.632 167.939 231.163 160.232C247.725 153.344 254.613 153.836 273.143 163.019C293.477 172.858 296.101 173.514 305.94 170.563C310.696 169.087 317.419 166.135 320.863 163.675C326.766 159.904 327.914 159.576 332.506 161.543C347.593 167.447 354.316 168.595 368.091 167.775C375.798 167.283 384.49 165.971 387.441 164.823C393.673 162.691 409.907 163.511 412.695 166.299C415.483 169.087 396.133 174.17 375.306 176.302C358.416 177.942 348.577 177.45 329.39 173.842C325.947 173.186 322.175 174.006 317.747 176.302C302.825 183.846 284.13 181.878 265.764 170.891C253.793 163.675 245.921 163.183 231.491 168.923C211.812 176.63 206.565 177.942 200.661 176.466C188.526 173.514 178.359 169.251 172.62 164.823C168.192 161.379 164.748 160.068 159.993 160.068C152.449 160.068 137.363 165.315 128.343 171.055C120.964 175.646 120.472 175.646 120.472 171.711C120.472 167.447 127.195 162.855 143.594 156.132C159.993 149.408 158.025 149.736 165.896 152.524ZM169.832 168.595C177.539 174.498 196.398 181.386 204.925 181.386C208.861 181.386 218.536 178.926 227.227 175.646C246.741 168.431 251.825 168.431 263.796 175.646C276.751 183.354 296.101 187.617 307.416 184.993C312.008 183.846 317.911 181.386 320.535 179.418C324.963 176.138 325.783 176.138 329.718 178.27C336.278 181.714 383.506 181.386 396.788 177.778C407.612 174.826 413.515 172.53 417.451 169.743C420.402 167.611 430.242 169.251 427.782 171.383C425.322 173.678 397.608 182.698 379.57 187.289C366.779 190.569 359.072 191.553 349.233 191.225C327.094 190.569 321.683 190.733 313.156 192.537C300.857 194.997 281.834 192.209 264.944 185.321C249.693 178.926 243.462 178.27 238.542 182.534C230.343 189.585 205.581 194.997 191.806 192.865C179.343 190.733 173.112 188.109 161.797 180.402C161.797 180.402 154.591 175.417 151.86 174.302C149.129 173.186 142.938 176.466 142.938 176.466C138.347 178.27 131.131 181.878 127.031 184.665C119.488 189.585 117.848 189.093 119.488 182.534C120.8 176.958 151.957 163.511 161.633 164.167C162.944 164.167 166.716 166.299 169.832 168.595ZM435.325 174.498C435.325 176.138 416.303 184.01 392.689 192.209C374.158 198.768 355.956 201.72 337.59 201.228C329.226 201.064 321.683 202.212 311.516 205.164C302.497 207.788 293.149 209.263 286.262 209.263C276.587 209.263 274.127 208.607 265.764 203.524C254.613 196.8 253.793 196.8 241.002 201.228C227.719 205.82 208.697 205.82 180.491 201.064C156.385 197.128 152.777 197.292 132.771 203.196C128.343 204.508 123.424 205.82 122.112 206.148C118.012 207.132 117.848 194.177 121.784 192.045C123.588 191.061 129.491 187.945 134.903 184.993C140.478 182.206 146.054 179.746 147.53 179.746C149.006 179.746 156.221 183.026 163.928 186.961C189.346 200.244 211.648 200.736 235.918 188.765L247.233 183.026L261.336 188.601C280.03 196.144 301.349 199.588 311.844 197.128C316.271 196.144 327.094 195.489 336.114 195.817C345.133 195.981 357.596 195.489 363.663 194.505C379.242 192.045 417.451 180.73 426.634 175.81C431.717 173.022 435.325 172.53 435.325 174.498ZM439.589 186.961C439.425 194.341 440.245 196.964 444.344 203.032C447.132 206.804 452.052 211.559 455.167 213.363C458.775 215.331 460.579 217.627 460.251 219.267C459.759 221.726 455.659 222.054 428.274 222.71C400.888 223.366 396.625 223.038 395.313 220.906C394.493 219.431 389.901 214.511 385.145 209.919L376.454 201.392L392.361 196.472C401.052 193.685 414.991 188.437 423.026 184.829C431.226 181.222 438.277 178.27 438.769 178.27C439.425 178.106 439.753 182.042 439.589 186.961ZM453.856 193.357C462.711 211.067 461.727 216.315 451.724 205C445.82 198.112 443.524 193.029 443.524 186.141C443.524 177.942 447.624 180.73 453.856 193.357ZM163.108 202.54C163.108 203.36 160.977 204.836 158.353 205.656C155.565 206.64 150.154 210.411 146.054 214.183C139.002 220.742 138.347 220.906 129.163 220.414C120.308 219.922 119.652 219.594 119.16 215.659C118.832 212.215 119.488 211.067 122.44 210.411C124.572 209.919 132.935 207.624 140.97 205.328C156.713 200.9 163.108 200.244 163.108 202.54ZM264.616 207.951C274.455 212.871 276.423 213.363 288.886 212.871C296.593 212.707 307.252 211.067 313.156 209.099C331.358 203.524 343.329 204.836 332.342 211.231C329.718 212.871 325.619 216.971 322.995 220.742L318.403 227.302H267.895L217.224 227.138L214.436 221.89C212.96 218.939 209.68 214.839 207.057 212.543L202.465 208.443L220.012 208.279C232.147 208.115 239.526 207.296 243.462 205.492C251.497 201.884 252.317 202.048 264.616 207.951ZM370.551 209.427C378.75 211.723 388.917 221.234 391.213 229.106C393.673 237.305 390.885 245.176 382.85 252.556C373.994 260.591 365.303 262.887 353.824 260.427C331.85 255.835 322.011 236.977 333.49 221.234C341.689 209.755 355.628 205.328 370.551 209.427ZM194.922 214.675C198.529 216.643 203.613 221.07 206.401 224.514C210.664 229.762 211.484 232.385 211.484 239.437C211.484 256.491 197.381 268.626 177.703 268.462C158.517 268.462 145.07 256.491 145.07 239.437C145.07 229.598 149.826 221.89 159.665 215.659C169.34 209.427 185.083 208.935 194.922 214.675ZM118.012 224.022C121.664 225.243 123.752 225.662 129.655 225.662C136.871 225.662 140.15 226.318 140.314 227.63C140.642 232.549 139.822 241.405 138.838 242.389C137.035 244.356 105.057 240.421 102.598 237.961C99.1539 234.517 101.614 228.286 107.681 225.334C114.077 222.054 114.36 222.802 118.012 224.022ZM462.875 231.729C463.367 234.845 462.383 235.009 430.406 235.009C405.152 235.009 397.608 234.681 397.608 233.041C397.608 229.762 402.364 229.27 430.734 228.942C445.328 228.942 457.627 228.45 458.119 227.958C459.759 226.482 462.383 228.45 462.875 231.729ZM323.487 235.993C322.995 238.617 319.715 238.945 281.178 239.765C258.22 240.257 234.606 240.913 228.703 240.913C218.864 241.241 218.044 240.913 217.552 237.633C216.896 233.041 217.716 233.041 278.391 233.041C321.191 233.041 323.979 233.205 323.487 235.993Z" fill="black"/>
<path d="M124.36 165.802C124.36 165.802 120.86 168.802 120.36 170.302C119.86 171.802 119.86 173.302 120.36 174.302C120.86 175.302 121.86 175.302 123.36 174.302C124.86 173.302 126.36 172.802 128.36 171.302C130.36 169.802 133.86 167.802 135.36 167.302C136.86 166.802 141.86 164.802 143.36 164.302C144.86 163.802 148.86 162.302 152.36 161.302C155.86 160.302 156.86 160.302 160.86 160.302C164.86 160.302 166.36 161.302 168.36 162.302C170.36 163.302 172.86 165.802 173.86 166.302C174.86 166.802 180.36 170.302 182.86 171.302C185.36 172.302 190.36 173.802 193.36 174.802C196.36 175.802 200.36 177.302 204.86 177.302C209.36 177.302 206.86 177.302 208.86 176.802C210.86 176.302 212.36 176.302 215.86 175.302C219.36 174.302 222.36 172.802 224.36 171.802C226.36 170.802 234.36 167.802 234.36 167.802C234.36 167.802 240.36 166.302 242.86 165.802C245.36 165.302 248.36 165.302 250.86 165.302C253.36 165.302 257.86 167.302 260.36 168.302C262.86 169.302 265.86 171.802 268.36 172.802C270.86 173.802 277.86 177.302 280.86 178.302C283.86 179.302 289.298 180.827 292.86 181.302C296.423 181.776 300.924 181.553 303.36 181.302C305.797 181.05 309.86 179.802 312.36 178.802C314.86 177.802 320.36 175.302 320.36 175.302C320.36 175.302 323.86 173.802 327.36 173.802C330.86 173.802 335.36 175.302 338.36 175.802C341.36 176.302 356.86 177.302 356.86 177.302H369.86C375.36 177.302 387.86 174.802 387.86 174.802C387.86 174.802 396.36 173.302 398.86 172.802C401.36 172.302 407.86 170.802 410.36 169.802C412.86 168.802 412.86 168.302 413.36 167.802C413.86 167.302 414.36 166.802 411.86 165.302C409.36 163.802 406.86 163.302 402.36 163.302C397.86 163.302 395.86 163.302 389.86 164.302C383.86 165.302 380.86 166.302 380.86 166.302C380.86 166.302 373.36 167.302 366.86 167.802C360.36 168.302 358.36 167.802 355.86 167.802C353.36 167.802 347.86 166.302 344.86 165.802C341.86 165.302 337.86 163.302 334.86 162.302C331.86 161.302 330.86 159.802 327.36 160.302C323.86 160.802 322.86 162.302 321.86 162.802C320.86 163.302 316.86 165.802 315.86 166.302C314.86 166.802 310.86 168.802 309.36 169.302C307.86 169.802 302.86 171.302 299.86 171.802C296.86 172.302 292.86 171.302 289.36 170.302C285.86 169.302 278.36 165.302 278.36 165.302C278.36 165.302 268.36 160.302 265.86 159.302C263.36 158.302 257.36 156.302 255.36 155.802C253.36 155.302 250.86 155.302 246.86 155.302C242.86 155.302 237.36 157.802 237.36 157.802C237.36 157.802 228.86 161.302 223.86 162.802C218.86 164.302 210.36 165.802 205.86 165.802C201.36 165.802 194.36 164.302 191.36 163.302C188.36 162.302 177.86 156.802 177.86 156.802C177.86 156.802 166.36 150.302 159.36 150.302C152.36 150.302 143.888 154.946 135.36 159.302C130.917 161.571 124.36 165.802 124.36 165.802Z" fill="url(#paint0_linear_6_131)"/>
<path d="M394.319 192.602C418.298 183.685 436.218 176.622 436.218 174.838C436.218 172.698 433 171.806 427.838 174.838C418.513 180.189 380.809 191.716 364.989 194.391C358.827 195.461 346.215 195.966 337.056 195.788C327.897 195.431 312.222 196.114 307.726 197.184C297.069 199.86 269.324 191.724 263.034 188.804C256.743 185.885 250.36 182.302 246.612 182.615C242.864 182.928 235.122 188.857 235.122 188.857C209.86 198.802 189.683 200.458 163.872 186.011C163.118 186.011 155.24 178.405 146.86 179.802C138.48 181.198 132.36 184.802 132.36 184.802C132.36 184.802 122.725 190.515 120.952 192.453C119.179 194.391 119.179 195.788 117.782 200.906C116.386 206.023 118.535 205.976 120.952 206.571C123.369 207.167 125.883 205.979 130.379 204.552C150.695 198.131 154.756 197.094 179.235 201.374C194.598 204.061 226.796 207.406 240.284 202.412C253.273 197.596 254.106 197.596 265.429 204.909C273.922 210.437 281.142 209.754 290.967 209.754C297.96 209.754 302.731 209.546 311.889 206.692C322.214 203.482 329.874 202.233 338.367 202.412C357.017 202.947 375.501 199.736 394.319 192.602Z" fill="url(#paint1_linear_6_131)"/>
<path d="M422.37 113.987C420.238 127.762 420.074 135.47 422.042 135.47C423.518 135.47 424.338 131.206 426.47 112.02C427.946 98.5728 424.666 100.213 422.37 113.987Z" fill="black"/>
<path d="M353.496 228.778C349.397 232.877 349.233 235.173 352.676 240.093C356.284 245.34 363.991 245.012 367.599 239.437C370.059 235.501 370.059 234.681 367.927 230.746C364.811 225.17 357.924 224.35 353.496 228.778Z" fill="black"/>
<path d="M173.604 231.893C172.62 232.549 170.98 234.681 169.832 236.813C168.192 239.929 168.192 241.405 170.488 244.684C175.243 252.064 187.706 248.128 187.706 239.109C187.706 233.369 178.523 228.614 173.604 231.893Z" fill="black"/>
<path d="M273.963 31.8305C274.783 32.4864 278.391 34.1263 281.998 35.2742C285.606 36.5861 292.329 40.0298 296.921 42.9815C305.12 48.3931 309.056 49.8689 309.056 47.2452C308.892 45.4413 292.165 35.7662 284.294 32.9784C276.915 30.3546 271.339 29.6987 273.963 31.8305Z" fill="black"/>
<path d="M189.346 33.1424C188.034 33.4704 178.851 34.4543 169.012 35.2742C159.173 36.0941 150.482 37.57 149.498 38.5539C146.71 41.3417 149.006 41.9976 155.073 40.3578C158.189 39.3739 167.864 38.226 176.719 37.57C185.575 37.0781 193.118 35.9302 193.61 35.2742C194.594 33.6344 192.462 32.6504 189.346 33.1424Z" fill="black"/>
<path d="M157.861 43.6375C147.366 45.2774 138.019 47.0812 137.035 47.5732C134.083 49.377 134.903 52.1648 138.183 51.1809C143.922 49.377 177.211 43.6375 182.459 43.6375C185.246 43.6375 187.706 42.8176 187.706 41.9977C187.706 39.8658 180.655 40.1938 157.861 43.6375Z" fill="black"/>
<path d="M277.243 81.1902C276.587 82.3381 274.619 82.6661 272.815 82.1742C269.043 80.8623 266.584 85.4539 269.535 88.4056C271.011 89.8815 272.159 89.8815 274.291 88.4056C276.751 86.9297 277.735 87.2577 279.21 89.5535C280.522 91.6853 280.522 92.8332 279.21 94.1451C276.423 96.9329 281.834 98.4088 286.098 96.113L289.706 94.1451L285.606 89.8815C283.474 87.4217 280.85 84.142 280.03 82.3381C278.883 80.2063 278.063 79.8784 277.243 81.1902Z" fill="black"/>
<path d="M29.9518 148.917C27.328 150.556 25.1962 150.392 55.3696 151.212C72.4242 151.704 81.1154 151.376 81.1154 150.228C81.1154 149.245 74.72 148.425 64.3889 148.425C55.0416 148.261 44.0546 147.933 39.791 147.769C35.5273 147.605 31.0997 148.097 29.9518 148.917Z" fill="black"/>
<path d="M28.3119 157.772C27.492 158.428 27 159.412 27 159.904C27 161.707 86.5269 161.051 87.1829 159.248C87.8388 157.28 30.1157 155.804 28.3119 157.772Z" fill="black"/>
<path d="M46.3504 167.775C44.7105 168.103 43.3986 169.087 43.3986 169.743C43.3986 170.727 77.5077 171.055 79.4755 169.907C82.5913 168.103 52.4179 166.135 46.3504 167.775Z" fill="black"/>
<path d="M62.257 250.26C61.6011 251.244 69.9644 251.9 85.871 251.9C101.286 251.9 110.633 251.244 110.633 250.26C110.633 249.276 101.614 248.62 87.0189 248.62C72.9161 248.62 62.913 249.276 62.257 250.26Z" fill="black"/>
<path d="M412.203 257.147C411.219 259.279 408.759 262.231 406.792 263.707L403.348 266.658H406.956C408.923 266.658 410.727 267.478 411.055 268.626C412.039 271.25 423.846 261.739 423.846 258.623C423.846 257.147 421.714 258.295 418.107 261.739C411.875 267.806 407.94 267.314 413.679 261.247C417.451 257.311 418.435 253.54 415.647 253.54C414.827 253.54 413.351 255.179 412.203 257.147Z" fill="black"/>
<path d="M271.011 256.327C263.632 258.131 269.371 259.443 283.31 258.951C291.509 258.787 299.709 258.623 301.349 258.459C302.824 258.459 304.136 257.967 304.136 257.147C304.136 255.835 275.767 255.179 271.011 256.327Z" fill="black"/>
<path d="M313.976 255.999C313.976 257.311 324.471 263.379 326.766 263.379C330.538 263.379 328.734 260.755 322.995 257.967C317.091 255.179 313.976 254.523 313.976 255.999Z" fill="black"/>
<path d="M312.336 263.215C312.336 265.183 325.291 270.266 327.258 268.954C329.718 267.478 327.258 265.019 322.995 265.019C320.863 265.019 318.567 264.199 318.075 263.379C316.763 261.411 312.336 261.247 312.336 263.215Z" fill="black"/>
<ellipse cx="177.86" cy="238.802" rx="34" ry="31.5" fill="#A8A8A9"/>
<ellipse cx="359.86" cy="234.802" rx="32" ry="27.5" fill="#A8A8A9"/>
<ellipse cx="178.36" cy="239.302" rx="9.5" ry="9" fill="black"/>
<ellipse cx="359.86" cy="235.802" rx="9" ry="8.5" fill="black"/>
<defs>
<linearGradient id="paint0_linear_6_131" x1="119.106" y1="166.166" x2="415.055" y2="166.166" gradientUnits="userSpaceOnUse">
<stop stop-color="#FA4245"/>
<stop offset="0.45" stop-color="#FF9868"/>
</linearGradient>
<linearGradient id="paint1_linear_6_131" x1="116.385" y1="191.598" x2="437.615" y2="191.598" gradientUnits="userSpaceOnUse">
<stop stop-color="#FA4245"/>
<stop offset="0.45" stop-color="#FF9868"/>
</linearGradient>
</defs>
</svg>
