<svg xmlns="http://www.w3.org/2000/svg" width="193" height="20" viewBox="0 0 193 20" fill="black">
    <path d="M181.524 12.9041V0.23802H173.754V19.0586H193V12.9041H181.524Z"></path>
    <path d="M159.133 12.9041V0.23802H151.364V19.0586H170.558V12.9041H159.133Z"></path>
    <path d="M148.133 0.23802H140.415V19.0586H148.133V0.23802Z"></path>
    <path d="M133.648 8.4327C135.654 8.09267 137.133 6.39253 137.133 4.38636V4.33536C137.133 2.09117 135.28 0.23802 132.985 0.23802H112.974V19.0586H133.07C136.028 19.0586 138.459 16.6784 138.459 13.7711V13.7201C138.459 10.9999 136.368 8.75573 133.648 8.4327ZM120.693 4.67539H128.31C129.024 4.67539 129.602 5.25344 129.602 5.96749C129.602 6.68155 129.024 7.2596 128.31 7.2596H120.693V4.67539ZM128.701 14.4852H120.693V11.4249H128.701C129.551 11.4249 130.265 12.088 130.265 12.9551C130.265 13.7711 129.551 14.4852 128.701 14.4852Z"></path>
    <path d="M98.3022 12.9041V0.23802H90.5495V19.0586H109.795V12.9041H98.3022Z"></path>
    <path d="M75.8773 12.9041V0.23802H68.1077V19.0586H87.3532V12.9041H75.8773Z"></path>
    <path d="M64.8774 0.23802H57.1587V19.0586H64.8774V0.23802Z"></path>
    <path d="M46.2438 0.23802V6.90257H36.434V0.23802H28.6814V19.0586H36.434V11.816H46.2438V19.0586H53.9625V0.23802H46.2438Z"></path>
    <path d="M7.90566 10.1498C7.90566 12.19 9.57179 13.8221 11.578 13.8221H14.3322C15.8113 13.8221 18.0045 12.632 18.0045 11.1529H25.9101C25.9101 15.6753 22.2378 19.3476 14.3322 19.3476H11.578C3.6213 19.3306 0 14.6722 0 10.1498V9.19776C0 4.67539 3.6723 0 11.578 0H14.3322C22.2888 0 25.9101 3.6723 25.9101 8.19468H18.0045C18.0045 6.71556 15.8113 5.52546 14.3322 5.52546H11.578C9.53779 5.52546 7.90566 7.1916 7.90566 9.19776V10.1498Z"></path>
</svg>
