<svg width="500" height="500" viewBox="0 0 500 500" fill="none" xmlns="http://www.w3.org/2000/svg">
<rect width="500" height="500" fill="white"/>
<path d="M146.373 203.661C155.574 195.568 163.455 189.013 176.58 189.013C194.29 189.013 221.419 204.54 221.419 249.772C221.419 301.371 198.654 316.647 173.943 316.647C163.643 316.647 155.354 312.068 146.373 305.292V355.794H114V191.647H146.373V203.661ZM146.373 278.41C151.397 286.064 157.74 292.839 167.38 292.839C186.848 292.839 189.705 268.812 189.705 254.163C189.705 240.612 186 217.871 168.039 217.871C158.619 217.871 152.057 224.427 146.373 231.202V278.41Z" fill="#FF3333"/>
<path d="M274.36 173.737H241.986V144H274.36V173.737ZM274.36 314.044H241.986V191.647H274.36V314.044Z" fill="#FF3333"/>
<path d="M330.597 314.044H298.224V144H330.597V314.044Z" fill="#FF3333"/>
<path d="M386.835 314.044H354.43V281.704H386.803V314.044H386.835Z" fill="#FF3333"/>
</svg>
